<svg width="258" height="256" viewBox="0 0 258 256" fill="none" xmlns="http://www.w3.org/2000/svg">
<rect width="257.231" height="256" fill="#0089D1"/>
<path d="M182.317 163.565C176.438 179.243 156.186 183.98 146.796 184.388H118.011C104.782 182.918 93.3092 175.201 89.2262 171.527C76.3639 161.115 77.5894 133.556 89.2262 121.919C133.934 82.1108 173.743 118.244 178.642 123.756C183.542 129.268 189.666 143.967 182.317 163.565Z" fill="white"/>
<path d="M154.058 66.3315C145.717 66.1181 140.391 91.5005 138.771 104.218C142.721 105.068 150.727 107.498 154.236 108.607C154.138 105.669 157.795 92.7613 159.636 86.6745L160.421 91.8571C161.541 107.139 181.842 109.529 178.845 93.0839C175.848 76.6384 164.484 66.5982 154.058 66.3315Z" fill="white"/>
<path d="M113.113 31.2771C122.912 40.0963 125.567 78.0268 126.587 104.77C123.158 104.77 116.176 106.812 113.113 107.832C110.459 94.767 109.926 84.8058 99.6374 61.2881C86.7762 31.891 100.864 20.2532 113.113 31.2771Z" fill="white"/>
<path d="M112.499 194.8C112.499 190.39 116.582 185.205 118.624 183.164H147.408C151.328 187.573 153.124 193.167 153.532 195.412L152.92 224.81C137.731 231.179 120.052 227.463 113.111 224.81V205.824C110.049 206.232 102.21 206.681 95.3505 205.212C86.7763 203.374 85.5514 196.025 83.7141 191.125C82.2443 187.206 78.2024 184.184 76.3652 183.164C73.9154 182.551 70.1183 180.836 74.5279 178.877C78.9374 176.917 84.531 180.918 86.7767 183.164C89.4306 187.042 95.4733 195.045 98.413 196.025C101.353 197.005 109.029 195.617 112.499 194.8Z" fill="white"/>
<path d="M134.96 210.197C134.147 211.605 132.116 211.605 131.303 210.197L120.639 191.726C119.827 190.319 120.842 188.56 122.467 188.56H143.796C145.421 188.56 146.436 190.319 145.624 191.726L134.96 210.197Z" fill="#008BC7"/>
<path d="M132.519 207.239L122.72 190.704L132.519 190.704L132.519 207.239Z" fill="white"/>
<path d="M133.744 207.239L144.155 190.704L133.744 190.704L133.744 207.239Z" fill="white"/>
</svg>
