<svg width="803" height="804" viewBox="0 0 803 804" fill="none" xmlns="http://www.w3.org/2000/svg">
<path d="M383.465 550.731C344.671 554.864 313.653 517.635 302.993 498.504L272.926 438.556C262.169 409.47 266.255 377.516 269.643 365.174C277.891 327.511 336.567 301.276 372.957 313.356C502.564 364.883 468.894 485.534 462.533 501.495C456.171 517.457 431.957 545.565 383.465 550.731Z" fill="white"/>
<path d="M556.447 390.312C548.179 372.718 489.753 388.14 461.574 398.05C463.931 407.163 467.232 426.375 468.588 434.842C474.605 431.57 505.307 425.702 519.906 423.178L509.933 430.226C479.275 448.522 495.504 493.298 526.623 469.877C557.742 446.457 566.782 412.304 556.447 390.312Z" fill="white"/>
<path d="M586.681 268.42C578.55 298.04 502.328 343.19 447.698 373.251C444.116 366.109 432.57 353.7 427.245 348.389C451.684 329.214 471.872 317.699 510.103 271.705C557.892 214.212 596.845 231.395 586.681 268.42Z" fill="white"/>
<path d="M245.483 437.954C254.667 433.348 269.731 436.435 276.115 438.554L306.182 498.501C301.093 511.27 291.32 520.855 287.07 524.051L225.207 553.483C196.076 528.504 185.347 487.804 183.624 470.576L223.164 450.744C219.115 444.793 209.991 428.936 205.887 413.115C200.757 393.339 214.784 383.112 223.068 374.167C229.696 367.012 231.766 355.438 231.973 350.546C230.69 344.804 230.295 335.105 238.982 342.241C247.67 349.377 245.18 365.206 242.849 372.229C237.543 381.808 227.189 402.752 228.218 409.898C229.248 417.043 240.158 431.579 245.483 437.954Z" fill="white"/>
<path d="M236.878 500.814C233.098 500.592 230.976 496.362 233.058 493.199L260.387 451.696C262.469 448.533 267.194 448.811 268.891 452.195L291.17 496.615C292.868 499.999 290.265 503.952 286.485 503.729L236.878 500.814Z" fill="#008BC7"/>
<path d="M240.489 492.641L264.69 454.961L274.925 475.369L240.489 492.641Z" fill="white"/>
<path d="M241.769 495.192L287.08 499.603L276.205 477.92L241.769 495.192Z" fill="white"/>
</svg>
