<svg width="579" height="579" viewBox="0 0 579 579" fill="none" xmlns="http://www.w3.org/2000/svg">
<path d="M393.652 286.976C400.414 313.188 377.995 338.247 365.941 347.5L327.83 374.205C308.952 384.532 286.602 384.96 277.788 383.883C251.099 382.031 227.153 344.406 231.764 318.203C254.024 224.019 340.254 234.926 351.854 237.679C363.455 240.431 385.2 254.21 393.652 286.976Z" fill="white"/>
<path d="M266.029 184.457C254.787 191.913 271.284 230.46 280.938 248.802C286.956 246.262 299.81 242.052 305.486 240.265C302.631 236.466 295.497 215.983 292.287 206.217L298.134 212.35C313.795 231.545 342.891 215.875 323.665 196.881C304.44 177.888 280.08 175.137 266.029 184.457Z" fill="white"/>
<path d="M179.295 176.033C200.451 178.618 239.156 226.375 265.319 260.836C260.779 264.017 253.428 273.198 250.321 277.391C234.685 262.555 224.738 249.861 189.297 228.269C144.995 201.28 152.85 172.802 179.295 176.033Z" fill="white"/>
<path d="M330.192 393.105C326.101 387.267 326.696 376.613 327.505 372.017L365.615 345.312C374.896 347.513 382.464 353.253 385.088 355.847L411.55 395.337C397.35 417.861 370.496 429.344 358.844 432.269L341.23 407.133C337.555 410.514 327.592 418.382 317.147 422.799C304.09 428.322 295.65 419.728 288.672 414.945C283.089 411.119 274.935 410.869 271.556 411.222C267.744 412.684 261.126 413.936 265.146 407.251C269.166 400.565 280.284 400.673 285.34 401.563C292.453 404.236 307.878 409.225 312.679 407.795C317.48 406.365 326.355 397.406 330.192 393.105Z" fill="white"/>
<path d="M374.215 392.653C374.445 395.27 371.756 397.154 369.375 396.045L338.119 381.483C335.737 380.374 335.45 377.102 337.601 375.595L365.84 355.807C367.992 354.3 370.968 355.686 371.198 358.303L374.215 392.653Z" fill="#008BC7"/>
<path d="M368.239 391.001L339.925 378.2L352.899 369.109L368.239 391.001Z" fill="white"/>
<path d="M369.862 389.864L368.306 358.313L354.521 367.972L369.862 389.864Z" fill="white"/>
</svg>
