<svg width="400" height="398" viewBox="0 0 400 398" fill="none" xmlns="http://www.w3.org/2000/svg">
<path d="M283.317 254.176C274.18 278.54 242.71 285.9 228.117 286.535H183.386C162.829 284.251 145 272.259 138.655 266.549C118.668 250.37 120.572 207.543 138.655 189.46C208.131 127.599 269.992 183.749 277.606 192.315C285.22 200.88 294.737 223.721 283.317 254.176Z" fill="white"/>
<path d="M239.403 103.078C226.441 102.746 218.165 142.19 215.647 161.953C221.785 163.273 234.226 167.05 239.679 168.774C239.527 164.208 245.21 144.149 248.07 134.691L249.29 142.744C251.03 166.492 282.577 170.206 277.92 144.65C273.263 119.095 255.605 103.492 239.403 103.078Z" fill="white"/>
<path d="M175.775 48.604C191.002 62.3088 195.128 121.252 196.714 162.81C191.385 162.81 180.535 165.983 175.776 167.569C171.652 147.266 170.823 131.786 154.835 95.2404C134.848 49.5579 156.74 31.4731 175.775 48.604Z" fill="white"/>
<path d="M174.821 302.715C174.821 295.863 181.166 287.805 184.339 284.632H229.069C235.16 291.485 237.951 300.177 238.586 303.667L237.634 349.349C214.032 359.247 186.559 353.473 175.773 349.349V319.846C171.014 320.48 158.832 321.178 148.173 318.894C134.849 316.039 132.945 304.619 130.09 297.005C127.806 290.914 121.525 286.219 118.67 284.632C114.863 283.681 108.962 281.016 115.815 277.97C122.667 274.925 131.36 281.143 134.849 284.632C138.973 290.66 148.364 303.096 152.932 304.619C157.5 306.141 169.428 303.984 174.821 302.715Z" fill="white"/>
<path d="M209.725 326.642C208.462 328.829 205.305 328.829 204.043 326.642L187.471 297.938C186.208 295.752 187.787 293.018 190.312 293.018H223.456C225.981 293.018 227.559 295.752 226.297 297.938L209.725 326.642Z" fill="#008BC7"/>
<path d="M205.931 322.046L190.704 296.35L205.931 296.351L205.931 322.046Z" fill="white"/>
<path d="M207.835 322.046L224.014 296.351L207.835 296.351L207.835 322.046Z" fill="white"/>
</svg>
